<svg data-name="Layer 2" viewBox="0 0 753.82 811.183" preserveAspectRatio="xMaxYMid" class="min-h-0 w-full min-w-0 flex-1" width="753.82" height="811.183" xmlns="http://www.w3.org/2000/svg"><path data-name="1" data-faction="bugs" class="sector lost idle" d="m405.353 377.503 28.097 10.21a59 59 0 0 0 2.32-8.068 60.7 60.7 0 0 0 1.286-10.62c.028-.67.037-1.313.037-1.975 0-2.953-.214-5.906-.633-8.776l-.327-2.235 33.985-6.01a94 94 0 0 0-3.698-14.076 92.6 92.6 0 0 0-6.95-15.38 92.7 92.7 0 0 0-9.586-13.928 94.4 94.4 0 0 0-11.925-12.027 95 95 0 0 0-13.862-9.745 94.4 94.4 0 0 0-15.38-7.09 93 93 0 0 0-14.114-3.819l-11.17 63.48c1.09.233 2.161.54 3.214.903a29.6 29.6 0 0 1 5.245 2.357 30.3 30.3 0 0 1 8.7 7.444 29 29 0 0 1 3.131 4.788 28.5 28.5 0 0 1 2.17 5.245c.55 1.78.932 3.643 1.137 5.525a31 31 0 0 1 .187 3.353c0 .764-.028 1.519-.094 2.255a29 29 0 0 1-.885 5.412q-.375 1.425-.875 2.795z" style="fill:#550;fill-opacity:1;stroke:#ff0;stroke-width:3;stroke-dasharray:none;stroke-opacity:1"/><path data-name="2" data-faction="bugs" class="sector lost idle" d="m437.829 389.306 28.088 10.21a94 94 0 0 0 3.875-13.852l.438-2.236 34.013 5.98a128.6 128.6 0 0 0 1.91-20.374c0-.661.018-1.332.018-1.984 0-6.968-.559-13.955-1.667-20.765a128 128 0 0 0-5.627-22.154 128.4 128.4 0 0 0-9.502-20.85 129 129 0 0 0-11.57-17.048l-22.9 19.229a98 98 0 0 1 8.599 12.819 98 98 0 0 1 7.285 16.144 98.5 98.5 0 0 1 4.285 17.133l.354 2.254-34.096 6.027a66 66 0 0 1 .4 7.202c0 .717-.009 1.434-.037 2.142a64.7 64.7 0 0 1-1.379 11.422 66 66 0 0 1-2.496 8.692z" style="fill:#550;fill-opacity:1;stroke:#ff0;stroke-width:3;stroke-dasharray:none;stroke-opacity:1"/><path data-name="3" data-faction="bugs" class="sector lost idle" d="M412.48 274.197a100 100 0 0 1 13.946 6.633 99.4 99.4 0 0 1 14.542 10.22 99 99 0 0 1 10.984 10.825l49.347-41.447a168 168 0 0 0-18.94-18.781 164.6 164.6 0 0 0-23.737-16.63 163 163 0 0 0-24.119-11.393z" style="fill:#550;fill-opacity:1;stroke:#ff0;stroke-width:3;stroke-dasharray:none;stroke-opacity:1"/><path data-name="4" data-faction="bugs" class="sector lost idle" d="m535.247 424.726 28.097 10.22a198 198 0 0 0 8.552-31.284c2.115-11.31 3.242-22.964 3.354-34.628.018-.68.018-1.332.018-1.984 0-11.002-.903-22.032-2.701-32.774a198.5 198.5 0 0 0-8.748-33.789 198 198 0 0 0-14.598-31.768 200.6 200.6 0 0 0-18.483-26.914l-49.357 41.438a135 135 0 0 1 12.055 17.747 133 133 0 0 1 9.838 21.595 132.7 132.7 0 0 1 5.832 22.954 134.5 134.5 0 0 1 1.723 21.511c0 .68 0 1.37-.018 2.05a133.5 133.5 0 0 1-1.984 21.12l34.04 5.99-.438 2.319a168 168 0 0 1-7.192 26.197z" style="fill:#550;fill-opacity:1;stroke:#ff0;stroke-width:3;stroke-dasharray:none;stroke-opacity:1"/><path data-name="5" data-faction="bugs" class="sector lost idle" d="m531.334 235.219 1.5 1.798a205 205 0 0 1 20.44 29.392 202.7 202.7 0 0 1 14.942 32.513 202.5 202.5 0 0 1 8.953 34.59 204.5 204.5 0 0 1 2.757 33.212h29.877c-.019-12.93-1.1-25.861-3.223-38.457a231.5 231.5 0 0 0-10.304-39.611 232 232 0 0 0-17.141-37.218 233.3 233.3 0 0 0-23.43-33.65c-8.739-10.47-18.493-20.243-28.964-29.065a235 235 0 0 0-33.584-23.56 232 232 0 0 0-37.227-17.282 231.6 231.6 0 0 0-37.376-10.043l-11.17 63.461a166.6 166.6 0 0 1 26.523 7.136 166.5 166.5 0 0 1 27.044 12.549 170 170 0 0 1 24.408 17.104 171 171 0 0 1 19.508 19.35z" style="fill:#550;fill-opacity:1;stroke:#ff0;stroke-width:3;stroke-dasharray:none;stroke-opacity:1"/><path data-name="6" data-faction="bugs" class="sector lost idle" d="m567.722 436.538 28.088 10.21a230 230 0 0 0 10.099-37.096l.42-2.273 68.053 11.98a303.5 303.5 0 0 0 4.49-50.353c.019-.68.019-1.322.019-1.956 0-17.03-1.435-34.125-4.258-50.8a298.7 298.7 0 0 0-12.632-49.04l-32.457 11.831-.792-2.207a267 267 0 0 0-18.548-40.646l-25.88 14.952a237.6 237.6 0 0 1 16.35 35.941 236.3 236.3 0 0 1 10.508 40.413c2.18 12.95 3.279 26.253 3.279 39.547 0 .68 0 1.36-.009 2.03l-.037 2.292H579.87c-.233 11.18-1.37 22.312-3.4 33.147a202.5 202.5 0 0 1-8.758 32.02z" style="fill:#550;fill-opacity:1;stroke:#ff0;stroke-width:3;stroke-dasharray:none;stroke-opacity:1"/><path data-name="7" data-faction="bugs" class="sector lost idle" d="m611.927 229.816 1.165 2.03a272 272 0 0 1 19.246 41.224l28.088-10.238a300 300 0 0 0-21.464-45.947 302.3 302.3 0 0 0-30.351-43.515 304 304 0 0 0-37.479-37.572 304.5 304.5 0 0 0-41.438-29.299l-32.196 55.813a239.4 239.4 0 0 1 32.243 22.852 239.3 239.3 0 0 1 29.541 29.643 238 238 0 0 1 22.722 32.3z" style="fill:#550;fill-opacity:1;stroke:#ff0;stroke-width:3;stroke-dasharray:none;stroke-opacity:1"/><path data-name="8" data-faction="bugs" class="sector lost idle" d="m527.999 100.118 2.021 1.164a308.7 308.7 0 0 1 44.121 30.939 308.6 308.6 0 0 1 38.056 38.149 306 306 0 0 1 29.644 42.164l25.88-14.952a337 337 0 0 0-32.644-46.431 339 339 0 0 0-41.735-41.83 338 338 0 0 0-48.388-33.928 335.3 335.3 0 0 0-51.415-24.129l-23.607 64.924-2.19-.792a265.7 265.7 0 0 0-43.198-11.59l-5.18 29.44a235 235 0 0 1 38.15 10.247 236 236 0 0 1 35.95 16.48z" style="fill:#550;fill-opacity:1;stroke:#ff0;stroke-width:3;stroke-dasharray:none;stroke-opacity:1"/><path data-name="9" data-faction="bugs" class="sector lost idle" d="m665.13 471.949 60.564 22.023a368.7 368.7 0 0 0 16.331-60.359c3.839-21.194 5.832-42.937 5.944-64.635v-1.937a375 375 0 0 0-5.3-62.818 367.3 367.3 0 0 0-15.745-60.676l-32.466 11.832-.792-2.199a334 334 0 0 0-23.635-51.555l-25.88 14.952a305.3 305.3 0 0 1 21.446 46.85 304 304 0 0 1 13.62 52.04 309.7 309.7 0 0 1 4.322 51.583c0 .67 0 1.36-.018 2.031a309 309 0 0 1-4.975 53.39 304 304 0 0 1-13.424 49.487z" style="fill:#550;fill-opacity:1;stroke:#ff0;stroke-width:3;stroke-dasharray:none;stroke-opacity:1"/><path data-name="10" data-faction="bugs" class="sector lost idle" d="M437.326 31.179a338 338 0 0 1 55.607 14.906 339.4 339.4 0 0 1 54.34 25.274 343.7 343.7 0 0 1 49.059 34.395 344.6 344.6 0 0 1 42.313 42.406 342 342 0 0 1 34.274 49.115 339 339 0 0 1 24.343 52.132l28.097-10.238a369.5 369.5 0 0 0-26.55-56.865 373.5 373.5 0 0 0-37.274-53.372 373 373 0 0 0-46.003-46.077 372 372 0 0 0-53.315-37.385c-18.819-10.863-38.68-20.113-59.045-27.473A368 368 0 0 0 442.515 1.74l-5.18 29.439Z" style="fill:#550;fill-opacity:1;stroke:#ff0;stroke-width:3;stroke-dasharray:none;stroke-opacity:1"/><path data-name="11" data-faction="bugs" class="sector lost" d="M751.118 247.367 647.766 83.768s56.185 78.953 105.252 47.95c0 0-54.852 31.823-1.9 115.649z" style="fill:#550;fill-opacity:1;stroke:#ff0;stroke-width:3;stroke-dasharray:none;stroke-opacity:1"/><path data-name="1" data-faction="cyborgs" class="sector captured" d="m315.9 294.534 22.182 26.411-1.658 1.51a60 60 0 0 0-7.173 7.769 60.7 60.7 0 0 0-5.693 8.831 59.6 59.6 0 0 0-4.024 9.615 59 59 0 0 0-2.292 10.107 60.5 60.5 0 0 0-.568 8.273c0 .67 0 1.332.037 1.994.103 3.4.503 6.819 1.193 10.191a60.5 60.5 0 0 0 2.096 7.621l28.097-10.238a29 29 0 0 1-.68-2.395c-.4-1.583-.662-3.26-.773-4.937a28.7 28.7 0 0 1 .037-5.05c.14-1.658.447-3.362.913-5.049a28.3 28.3 0 0 1 1.78-4.9 30 30 0 0 1 2.626-4.583 29 29 0 0 1 3.457-4.118 30 30 0 0 1 4.201-3.494 29 29 0 0 1 4.807-2.71 28 28 0 0 1 3.177-1.221l-11.245-63.638a93 93 0 0 0-13.815 4.174 94.5 94.5 0 0 0-15.018 7.415 95 95 0 0 0-11.682 8.422z" style="fill:#550;fill-opacity:1;stroke:#ff0;stroke-width:3;stroke-dasharray:none;stroke-opacity:1"/><path data-name="2" data-faction="cyborgs" class="sector captured" d="m249.533 344.58 63.461 11.17a63 63 0 0 1 2.105-8.506 64.5 64.5 0 0 1 10.471-19.88 67 67 0 0 1 6.093-6.829l-22.265-26.513 1.696-1.5a99 99 0 0 1 14.067-10.397 99 99 0 0 1 15.753-7.779 97 97 0 0 1 14.692-4.425l-5.199-29.457a128.5 128.5 0 0 0-19.647 5.757 128.6 128.6 0 0 0-20.458 9.978 130 130 0 0 0-18.353 13.359 131 131 0 0 0-15.688 16.294 128.7 128.7 0 0 0-12.595 18.706c-3.643 6.596-6.717 13.508-9.111 20.542a128.4 128.4 0 0 0-5.022 19.49z" style="fill:#550;fill-opacity:1;stroke:#ff0;stroke-width:3;stroke-dasharray:none;stroke-opacity:1"/><path data-name="3" data-faction="cyborgs" class="sector captured" d="M245.723 218.198a201 201 0 0 0-22.433 23.263 199 199 0 0 0-19.498 28.572 196.9 196.9 0 0 0-22.694 64.84 200 200 0 0 0-2.6 32.177c0 .699 0 1.388.02 2.068a199 199 0 0 0 3.288 34.2 198 198 0 0 0 8.337 30.845l125.488-45.723a64 64 0 0 1-2.283-8.282 65.5 65.5 0 0 1-1.286-10.965 66 66 0 0 1 .298-8.84l-68.146-11.99.354-2.255a132 132 0 0 1 4.863-20.365l-32.504-11.822.755-2.17a169 169 0 0 1 11.99-26.738 168 168 0 0 1 16.507-24.305 170.4 170.4 0 0 1 18.782-19.63l-19.22-22.889z" style="fill:#550;fill-opacity:1;stroke:#ff0;stroke-width:3;stroke-dasharray:none;stroke-opacity:1"/><path data-name="4" data-faction="cyborgs" class="sector captured" d="m222.843 311.135 28.088 10.22a133.4 133.4 0 0 1 8.654-19.051 133.3 133.3 0 0 1 13.043-19.378 135.7 135.7 0 0 1 16.247-16.871 135 135 0 0 1 19.014-13.844 133.1 133.1 0 0 1 41.698-16.321l-5.198-29.448a164 164 0 0 0-25.48 7.322 164.4 164.4 0 0 0-25.916 12.53l-2.031 1.211-17.272-29.904a199.5 199.5 0 0 0-24.436 17.58l22.19 26.429-1.732 1.5a166 166 0 0 0-19.946 20.57 164 164 0 0 0-16.051 23.634 163 163 0 0 0-10.89 23.83z" style="fill:#550;fill-opacity:1;stroke:#ff0;stroke-width:3;stroke-dasharray:none;stroke-opacity:1"/><path data-name="5" data-faction="cyborgs" class="sector captured" d="m175.005 250.767 25.89 14.934a203.6 203.6 0 0 1 18.79-27.194 205.7 205.7 0 0 1 24.771-25.386 203.4 203.4 0 0 1 28.87-20.765l2.031-1.202 17.29 29.923a169.5 169.5 0 0 1 24.623-11.692 168 168 0 0 1 26.318-7.555l-5.198-29.43a196.6 196.6 0 0 0-31.302 8.888l-2.208.83-23.654-64.933a268 268 0 0 0-40.096 19.34 268.7 268.7 0 0 0-36.295 25.721l22.19 26.44-1.75 1.5a236.3 236.3 0 0 0-28.461 29.065 234 234 0 0 0-21.818 31.507z" style="fill:#550;fill-opacity:1;stroke:#ff0;stroke-width:3;stroke-dasharray:none;stroke-opacity:1"/><path data-name="6" data-faction="cyborgs" class="sector captured" d="m113.072 322.706-.028.195a270 270 0 0 0-3.633 43.963l64.43-.019a204.5 204.5 0 0 1 2.654-32.727 201.5 201.5 0 0 1 8.692-34.171 202.4 202.4 0 0 1 13.425-30.184L168.67 252.49l1.127-2.012a238 238 0 0 1 23.42-34.181 242 242 0 0 1 27.278-28.134l-19.21-22.88a268.1 268.1 0 0 0-57.35 70.224 265 265 0 0 0-19.302 42.369 265 265 0 0 0-11.57 44.82z" style="fill:#550;fill-opacity:1;stroke:#ff0;stroke-width:3;stroke-dasharray:none;stroke-opacity:1"/><path data-name="7" data-faction="cyborgs" class="sector captured" d="m113.342 413.062.42 2.282a266 266 0 0 0 11.458 42.482l60.545-22.06a202.4 202.4 0 0 1-8.543-31.592 203 203 0 0 1-3.326-32.652l-69.106.018-.028-2.3v-2.18c0-15.027 1.23-30.073 3.661-44.727l.028-.186a270 270 0 0 1 11.804-45.807 269 269 0 0 1 18.51-41.093l-25.889-14.934a300.2 300.2 0 0 0-33.845 96.626 305 305 0 0 0-4.146 50.13c0 .708 0 1.416.02 2.114a303 303 0 0 0 4.452 49.916l34.004-6.01Z" style="fill:#550;fill-opacity:1;stroke:#ff0;stroke-width:3;stroke-dasharray:none;stroke-opacity:1"/><path data-name="8" data-faction="cyborgs" class="sector captured" d="m115.168 216.251 25.89 14.934a272.5 272.5 0 0 1 25.712-37.068 272.6 272.6 0 0 1 33.295-33.902 272.7 272.7 0 0 1 38.708-27.687 273 273 0 0 1 43.031-20.523 269.5 269.5 0 0 1 43.748-12.241l-11.207-63.452a332 332 0 0 0-54.564 15.139c-18.353 6.8-36.249 15.306-53.213 25.265a338.6 338.6 0 0 0-47.903 34.134 341 341 0 0 0-39.761 40.068l25.516 21.399v1.92l-.53.651a303 303 0 0 0-28.713 41.363z" style="fill:#550;fill-opacity:1;stroke:#ff0;stroke-width:3;stroke-dasharray:none;stroke-opacity:1"/><path data-name="9" data-faction="cyborgs" class="sector captured" d="M53.011 185.76a370 370 0 0 0-25.786 56.697 369 369 0 0 0-16.257 62.483c-3.437 20.356-5.18 41.251-5.18 62.1v2.162c.122 21.567 2.106 43.152 5.907 64.169a368 368 0 0 0 16.117 59.93l28.087-10.238a338.6 338.6 0 0 1-14.766-54.872l-.419-2.3 34.032-6.01a307 307 0 0 1-4.519-50.651c-.018-.69-.018-1.435-.018-2.19 0-17.085 1.416-34.208 4.201-50.893a304.9 304.9 0 0 1 34.405-98.181L52.993 185.76Z" style="fill:#550;fill-opacity:1;stroke:#ff0;stroke-width:3;stroke-dasharray:none;stroke-opacity:1"/><path data-name="10" data-faction="cyborgs" class="sector captured" d="m55.313 181.717 55.821 32.205a308 308 0 0 1 27.697-40.217l-26.476-22.2 1.472-1.78a344.5 344.5 0 0 1 41.8-42.425 342.5 342.5 0 0 1 48.565-34.6c17.197-10.098 35.345-18.725 53.95-25.618a338 338 0 0 1 55.383-15.363l-5.198-29.448a370 370 0 0 0-60.396 16.704 370 370 0 0 0-58.645 27.827 373 373 0 0 0-52.859 37.58 375 375 0 0 0-45.49 46.115 372 372 0 0 0-35.634 51.22z" style="fill:#550;fill-opacity:1;stroke:#ff0;stroke-width:3;stroke-dasharray:none;stroke-opacity:1"/><path data-name="11" data-faction="cyborgs" class="sector captured" d="M111.209 81.14 1.279 240.4s50.577-82.662 2.805-115.631c0 0 50.8 37.963 107.115-43.627z" style="fill:#550;fill-opacity:1;stroke:#ff0;stroke-width:3;stroke-dasharray:none;stroke-opacity:1"/><path data-name="1" data-faction="illuminate" class="sector captured" d="M306.296 430.25a95 95 0 0 0 9.893 9.558 95.6 95.6 0 0 0 13.183 9.242 95 95 0 0 0 14.57 6.866 94 94 0 0 0 15.53 4.285 94 94 0 0 0 16.07 1.584c.484.018.913.018 1.332.018 4.192 0 8.375-.27 12.474-.81l-6.018-34.032 2.376-.344a59 59 0 0 0 9.95-2.348 58.5 58.5 0 0 0 9.455-4.024 60 60 0 0 0 8.683-5.627 60 60 0 0 0 5.98-5.32l-23.038-19.33a28 28 0 0 1-2.432 1.89 30 30 0 0 1-4.406 2.59 29 29 0 0 1-4.723 1.77c-1.64.466-3.289.792-4.91.96a27 27 0 0 1-4.919.159 30 30 0 0 1-4.807-.625 29 29 0 0 1-4.648-1.388 29.6 29.6 0 0 1-4.342-2.105 31 31 0 0 1-3.95-2.74 33 33 0 0 1-1.9-1.704l-49.422 41.494z" style="fill:#550;fill-opacity:1;stroke:#ff0;stroke-width:3;stroke-dasharray:none;stroke-opacity:1"/><path data-name="2" data-faction="illuminate" class="sector captured" d="M273.606 494.242a163.5 163.5 0 0 0 21.25 14.663 164 164 0 0 0 25.48 11.962 161.7 161.7 0 0 0 27.165 7.388 164.4 164.4 0 0 0 28.069 2.627c.456.009.904.009 1.323 0a166 166 0 0 0 24.5-1.817l-6.008-34.022 2.33-.373a128 128 0 0 0 21.584-5.44 129.5 129.5 0 0 0 18.288-7.984l-17.29-29.932 2.095-1.146a94 94 0 0 0 13.62-9.074 94 94 0 0 0 10.295-9.568L423.37 412.29a66 66 0 0 1-6.707 5.99 65 65 0 0 1-9.353 6.055 62.6 62.6 0 0 1-10.192 4.342 62 62 0 0 1-8.357 2.133l6.019 34.05-2.339.373a100 100 0 0 1-15.548 1.21c-.485 0-.978 0-1.454-.018a98.7 98.7 0 0 1-16.806-1.658 99 99 0 0 1-16.293-4.49 99.7 99.7 0 0 1-15.297-7.202 98 98 0 0 1-12.027-8.226l-41.41 49.385z" style="fill:#550;fill-opacity:1;stroke:#ff0;stroke-width:3;stroke-dasharray:none;stroke-opacity:1"/><path data-name="3" data-faction="illuminate" class="sector captured" d="m377.87 535.54.029 64.42a235 235 0 0 0 37.823-3.223 231.3 231.3 0 0 0 36.826-9.335l-11.822-32.457 2.218-.782a198 198 0 0 0 31.273-14.217 200 200 0 0 0 26.58-17.96l-22.201-26.45 1.826-1.49a165.4 165.4 0 0 0 18.865-18.073l-49.412-41.438a99.5 99.5 0 0 1-23.179 18.567l17.3 29.942-2.068 1.146a133.5 133.5 0 0 1-21.11 9.446 132.6 132.6 0 0 1-20.039 5.245l6.009 34.041-2.32.382a170.5 170.5 0 0 1-26.597 2.245z" style="fill:#550;fill-opacity:1;stroke:#ff0;stroke-width:3;stroke-dasharray:none;stroke-opacity:1"/><path data-name="4" data-faction="illuminate" class="sector captured" d="M245.08 599.83a265 265 0 0 0 39.826 18.446 266.4 266.4 0 0 0 44.615 12.064 269.4 269.4 0 0 0 46.068 4.164c.456.01.875 0 1.294.01 15.037 0 30.129-1.258 44.839-3.755l.204-.037a266 266 0 0 0 42.454-10.854l-10.239-28.096a235.4 235.4 0 0 1-37.646 9.548 240 240 0 0 1-39.602 3.289c-.457 0-.913 0-1.37-.009l-2.273-.056-.028-69.06a167.5 167.5 0 0 1-26.55-2.673 166 166 0 0 1-27.94-7.593 168 168 0 0 1-24.174-11.142l-49.46 85.736z" style="fill:#550;fill-opacity:1;stroke:#ff0;stroke-width:3;stroke-dasharray:none;stroke-opacity:1"/><path data-name="5" data-faction="illuminate" class="sector captured" d="M184.824 600.119a303.6 303.6 0 0 0 38.95 27.305l66.731-115.668a169 169 0 0 1-21.697-15.427 171 171 0 0 1-19.014-18.632l-49.347 41.428a234 234 0 0 0 26.97 26.57l1.789 1.5z" style="fill:#550;fill-opacity:1;stroke:#ff0;stroke-width:3;stroke-dasharray:none;stroke-opacity:1"/><path data-name="6" data-faction="illuminate" class="sector captured" d="M94.626 607.981a374.7 374.7 0 0 0 44.01 43.59 371.4 371.4 0 0 0 52.625 36.873 369.6 369.6 0 0 0 56.027 26.439l33.836-93.04a270 270 0 0 1-38.373-17.98l-17.272 29.942-2.021-1.164a308.4 308.4 0 0 1-43.413-30.436 309.5 309.5 0 0 1-36.062-35.643L94.635 608z" style="fill:#550;fill-opacity:1;stroke:#ff0;stroke-width:3;stroke-dasharray:none;stroke-opacity:1"/><path data-name="7" data-faction="illuminate" class="sector captured" d="m424.824 634.951 5.198 29.439a299 299 0 0 0 48.397-12.828 301 301 0 0 0 47.642-21.874 303.3 303.3 0 0 0 43.19-29.82 304.4 304.4 0 0 0 35.922-35.104l-22.899-19.21a275 275 0 0 1-32.261 31.452l-1.78 1.472-44.437-52.925a203.6 203.6 0 0 1-27.287 18.455 203.5 203.5 0 0 1-29.802 13.75l23.654 64.943-2.208.792a270.5 270.5 0 0 1-43.33 11.468z" style="fill:#550;fill-opacity:1;stroke:#ff0;stroke-width:3;stroke-dasharray:none;stroke-opacity:1"/><path data-name="8" data-faction="illuminate" class="sector captured" d="M263.48 684.019a335 335 0 0 0 54.07 14.365 338.7 338.7 0 0 0 58.057 5.208h1.276c19.098 0 38.233-1.612 56.866-4.789a334 334 0 0 0 56.492-14.784 335 335 0 0 0 51.07-23.253l-14.952-25.89a305.7 305.7 0 0 1-46.366 21.074 304.7 304.7 0 0 1-51.461 13.424l-2.283.382-6.009-34.031a275 275 0 0 1-43.347 3.437c-.457 0-.913 0-1.36-.009a274 274 0 0 1-46.823-4.239 271 271 0 0 1-43.198-11.477l-22.023 60.573z" style="fill:#550;fill-opacity:1;stroke:#ff0;stroke-width:3;stroke-dasharray:none;stroke-opacity:1"/><path data-name="9" data-faction="illuminate" class="sector in_progress" d="m494.014 687.615 10.238 28.088a368 368 0 0 0 56.372-26.178 371 371 0 0 0 53.064-36.743 373 373 0 0 0 44.447-43.617l-49.385-41.4a309.5 309.5 0 0 1-36.519 35.698 307 307 0 0 1-41.82 29.113l17.282 29.923-2.03 1.164a339 339 0 0 1-51.64 23.952z" style="fill:#550;fill-opacity:1;stroke:#ff0;stroke-width:3;stroke-dasharray:none;stroke-opacity:1"/><path data-name="10" data-faction="illuminate" class="sector lost" d="M251.667 716.485a370 370 0 0 0 59.892 15.93c21.027 3.736 42.584 5.656 64.067 5.72.447.01.838.02 1.257 0 21.13 0 42.286-1.788 62.874-5.31a367.3 367.3 0 0 0 60.107-15.557l-10.238-28.088a339 339 0 0 1-55.095 14.216c-18.884 3.224-38.28 4.854-57.648 4.854-.447 0-.894 0-1.332-.01-19.703-.064-39.5-1.834-58.821-5.281a339.6 339.6 0 0 1-54.853-14.57l-10.22 28.087z" style="fill:#550;fill-opacity:1;stroke:#ff0;stroke-width:3;stroke-dasharray:none;stroke-opacity:1"/><path data-name="11" data-faction="illuminate" class="sector lost" d="M278.73 747.75h193.512s-96.756 5.329-96.756 63.377c0 0 2.385-63.377-96.756-63.377z" style="fill:#550;fill-opacity:1;stroke:#ff0;stroke-width:3;stroke-dasharray:none;stroke-opacity:1"/><circle data-name="0" class="sector active" cx="376.455" cy="367.041" r="25.153" style="fill:#550;fill-opacity:1;stroke:#ff0;stroke-width:3;stroke-dasharray:none;stroke-opacity:1"/></svg>