<?xml version="1.0" encoding="UTF-8" standalone="no"?>
<!-- Created with Inkscape (http://www.inkscape.org/) -->

<svg
   width="200"
   height="228"
   viewBox="0 0 200 228"
   version="1.1"
   id="svg1"
   xml:space="preserve"
   sodipodi:docname="loading_trans_7.svg"
   inkscape:version="1.4.3 (0d15f75, 2025-12-25)"
   xmlns:inkscape="http://www.inkscape.org/namespaces/inkscape"
   xmlns:sodipodi="http://sodipodi.sourceforge.net/DTD/sodipodi-0.dtd"
   xmlns:xlink="http://www.w3.org/1999/xlink"
   xmlns="http://www.w3.org/2000/svg"
   xmlns:svg="http://www.w3.org/2000/svg"><sodipodi:namedview
     id="namedview1"
     pagecolor="#505050"
     bordercolor="#ffffff"
     borderopacity="1"
     inkscape:showpageshadow="0"
     inkscape:pageopacity="0"
     inkscape:pagecheckerboard="1"
     inkscape:deskcolor="#505050"
     inkscape:zoom="2.3973401"
     inkscape:cx="105.53363"
     inkscape:cy="154.54628"
     inkscape:window-width="1920"
     inkscape:window-height="991"
     inkscape:window-x="-9"
     inkscape:window-y="-9"
     inkscape:window-maximized="1"
     inkscape:current-layer="svg1"
     showguides="false" /><defs
     id="defs1"><linearGradient
       id="linearGradient6"><stop
         style="stop-color:#262626;stop-opacity:1;"
         offset="0"
         id="stop6" /><stop
         style="stop-color:#0f0f0f;stop-opacity:1;"
         offset="1"
         id="stop7" /></linearGradient><linearGradient
       xlink:href="#linearGradient6"
       id="linearGradient64"
       gradientUnits="userSpaceOnUse"
       gradientTransform="matrix(1.0284596,0,0,1.9715717,24.953125,17.985729)"
       x1="26.458332"
       y1="-2.0215971"
       x2="26.458332"
       y2="99.420311" /></defs><path
     id="path4"
     style="display:inline;fill:#aaaaaa;fill-opacity:1;stroke:none;stroke-width:3.57672;stroke-linecap:round;stroke-dasharray:none;stroke-opacity:1"
     d="M 86.125999,-17.694462 45.485075,6.6900911 V 64.687903 l -12.869169,17.189261 31.834935,26.755036 4.740986,-4.74097 12.869167,16.93234 h 17.781424 17.781432 l 12.86918,-16.93234 4.74095,4.74097 31.83496,-26.755036 -12.86921,-17.189261 V 6.6900911 L 113.55885,-17.694462 H 99.842418 Z" /><path
     style="baseline-shift:baseline;display:inline;overflow:visible;opacity:1;fill:#aaaaaa;fill-opacity:1;stroke:none;stroke-width:3.57672;stroke-linecap:square;stroke-dasharray:none;stroke-opacity:1;enable-background:accumulate;stop-color:#000000;stop-opacity:1"
     d="m -10.019393,40.79548 -30.513983,30.513983 h -32.648146 -4.023819 v 8.047643 h 4.023819 35.980372 L -6.6871664,48.843124 H 36.579398 40.603219 V 40.79548 h -4.023821 z"
     id="path5" /><path
     style="baseline-shift:baseline;display:inline;overflow:visible;opacity:1;fill:#aaaaaa;fill-opacity:1;stroke:none;stroke-width:3.57672;stroke-linecap:square;stroke-dasharray:none;stroke-opacity:1;enable-background:accumulate;stop-color:#000000;stop-opacity:1"
     d="m 159.39678,42.136756 v 8.047642 h 4.02382 43.26656 l 30.514,30.513984 h 35.98036 4.02383 v -8.047647 h -4.02383 -32.64815 L 210.01938,42.136756 H 163.4206 Z"
     id="path6" /><path
     style="baseline-shift:baseline;display:inline;overflow:visible;opacity:1;fill:#aaaaaa;fill-opacity:1;fill-rule:evenodd;stroke:none;stroke-width:3.57672;stroke-linecap:square;stroke-dasharray:none;stroke-opacity:1;enable-background:accumulate;stop-color:#000000;stop-opacity:1"
     d="m -76.985291,-7.1655428 v 8.04764359 h 4.023823 12.343912 L -35.744608,25.755049 h 71.768633 4.023823 V 17.707405 H 36.024025 -32.412382 L -57.281838,-7.1655428 h -15.67963 z"
     id="path7" /><path
     style="baseline-shift:baseline;display:inline;overflow:visible;opacity:1;fill:#aaaaaa;fill-opacity:1;fill-rule:evenodd;stroke:none;stroke-width:3.57672;stroke-linecap:square;stroke-dasharray:none;stroke-opacity:1;enable-background:accumulate;stop-color:#000000;stop-opacity:1"
     d="m 256.72645,-8.188963 -24.86943,24.872948 h -68.43642 -4.02382 v 8.047645 h 4.02382 71.76863 l 24.87295,-24.87294711 h 12.34392 4.02381 V -8.188963 h -4.02381 z"
     id="path8" /><path
     style="baseline-shift:baseline;display:inline;overflow:visible;opacity:1;fill:#aaaaaa;fill-opacity:1;fill-rule:evenodd;stroke:none;stroke-width:3.57672;stroke-linecap:square;stroke-dasharray:none;stroke-opacity:1;enable-background:accumulate;stop-color:#000000;stop-opacity:1"
     d="m 35.290515,100.30754 -2.846712,2.84319 -3.898079,3.89809 v 47.73745 l -57.217209,33.03239 v 66.26733 4.02384 h 8.047644 v -4.02384 -61.62176 l 57.21721,-33.03239 v -49.04728 l 1.540369,-1.54388 2.846716,-2.84322 z"
     id="path9" /><path
     style="baseline-shift:baseline;display:inline;overflow:visible;opacity:1;fill:#aaaaaa;fill-opacity:1;fill-rule:evenodd;stroke:none;stroke-width:3.57672;stroke-linecap:square;stroke-dasharray:none;stroke-opacity:1;enable-background:accumulate;stop-color:#000000;stop-opacity:1"
     d="m 164.6501,100.30754 -5.68994,5.68992 2.84321,2.84322 1.54038,1.54388 v 49.04728 l 57.21721,33.03239 v 61.62176 4.02384 h 8.04764 v -4.02384 -66.26733 l -57.2172,-33.03239 v -47.73745 l -3.89808,-3.89809 z"
     id="path10" /><path
     id="path56"
     style="display:inline;fill:#ffff00;fill-opacity:1;stroke:#000000;stroke-width:3.57672;stroke-linecap:round;stroke-dasharray:none;stroke-opacity:1"
     d="M 86.125999,-25.742106 45.485075,-1.3575537 V 56.64026 l -12.869169,17.18926 31.834935,26.75505 4.740986,-4.740989 12.869167,16.932329 h 17.781424 17.781432 l 12.86918,-16.932329 4.74095,4.740989 31.83496,-26.75505 -12.86921,-17.18926 V -1.3575537 L 113.55885,-25.742106 H 99.842418 Z" /><path
     id="ellipse56"
     style="stroke-width:9.62472;stroke-linecap:round"
     d="m 84.226416,65.82986 -3.946133,9.453928 -9.528558,3.916277 -9.528559,-3.916277 -3.947064,-9.453928 3.947064,-9.452992 9.528559,-3.916281 9.527624,3.916281 3.947067,9.452992 v 0" /><path
     id="path57"
     style="fill:#000000;fill-opacity:1;stroke:none;stroke-width:9.74311;stroke-linecap:round"
     d="m 99.842418,79.58539 -8.213815,13.16617 3.895553,2.836937 4.318262,-4.296408 4.318272,4.296408 3.89556,-2.836937 z" /><path
     id="ellipse57"
     style="stroke-width:9.62472;stroke-linecap:round"
     d="m 115.4587,65.82986 3.94616,9.453928 9.52853,3.916277 9.52856,-3.916277 3.94706,-9.453928 -3.94706,-9.452992 -9.52856,-3.916281 -9.52853,3.916281 -3.94616,9.452992 v 0" /><path
     style="baseline-shift:baseline;display:inline;overflow:visible;opacity:1;fill:#ffff00;stroke:#000000;stroke-width:3.57672;stroke-linecap:square;stroke-dasharray:none;stroke-opacity:1;enable-background:accumulate;stop-color:#000000;stop-opacity:1"
     d="m -10.019393,32.747837 -30.513983,30.513982 h -32.648146 -4.023819 v 8.047644 h 4.023819 35.980372 L -6.6871664,40.79548 h 43.2665644 4.023821 v -8.047643 h -4.023821 z"
     id="path58" /><path
     style="baseline-shift:baseline;display:inline;overflow:visible;opacity:1;fill:#ffff00;stroke:#000000;stroke-width:3.57672;stroke-linecap:square;stroke-dasharray:none;stroke-opacity:1;enable-background:accumulate;stop-color:#000000;stop-opacity:1"
     d="m 159.39678,34.089111 v 8.047645 h 4.02382 43.26656 l 30.514,30.513979 h 35.98036 4.02383 v -8.047642 h -4.02383 -32.64815 L 210.01938,34.089111 H 163.4206 Z"
     id="path59" /><path
     style="baseline-shift:baseline;display:inline;overflow:visible;opacity:1;fill:#ffff00;fill-rule:evenodd;stroke:#000000;stroke-width:3.57672;stroke-linecap:square;stroke-dasharray:none;stroke-opacity:1;enable-background:accumulate;stop-color:#000000;stop-opacity:1"
     d="m -76.985291,-15.213188 v 8.0476452 h 4.023823 12.343912 l 24.872948,24.8729478 h 71.768633 4.023823 V 9.6597607 H 36.024025 -32.412382 L -57.281838,-15.213188 h -15.67963 z"
     id="path1" /><path
     style="baseline-shift:baseline;display:inline;overflow:visible;opacity:1;fill:#ffff00;fill-rule:evenodd;stroke:#000000;stroke-width:3.57672;stroke-linecap:square;stroke-dasharray:none;stroke-opacity:1;enable-background:accumulate;stop-color:#000000;stop-opacity:1"
     d="M 256.72645,-16.236606 231.85702,8.6363428 h -68.43642 -4.02382 v 8.0476422 h 4.02382 71.76863 l 24.87295,-24.872948 h 12.34392 4.02381 v -8.047643 h -4.02381 z"
     id="path1-8" /><path
     style="baseline-shift:baseline;display:inline;overflow:visible;opacity:1;fill:#ffff00;fill-rule:evenodd;stroke:#000000;stroke-width:3.57672;stroke-linecap:square;stroke-dasharray:none;stroke-opacity:1;enable-background:accumulate;stop-color:#000000;stop-opacity:1"
     d="m 35.290515,92.259885 -2.846712,2.843218 -3.898079,3.898075 v 47.737472 l -57.217209,33.03236 v 66.26733 4.02382 h 8.047644 v -4.02382 -61.62174 l 57.21721,-33.03238 v -49.04731 l 1.540369,-1.54387 2.846716,-2.843221 z"
     id="path2" /><path
     style="baseline-shift:baseline;display:inline;overflow:visible;opacity:1;fill:#ffff00;fill-rule:evenodd;stroke:#000000;stroke-width:3.57672;stroke-linecap:square;stroke-dasharray:none;stroke-opacity:1;enable-background:accumulate;stop-color:#000000;stop-opacity:1"
     d="m 164.6501,92.259885 -5.68994,5.689934 2.84321,2.843221 1.54038,1.54387 v 49.04731 l 57.21721,33.03238 v 61.62174 4.02382 h 8.04764 v -4.02382 -66.26733 L 171.3914,146.73865 V 99.001178 l -3.89808,-3.898075 z"
     id="path3" /></svg>
